HIERARCHY
ROOT Hips
{
  OFFSET 55.4452 86.7182 4.69361
  CHANNELS 6 Xposition Yposition Zposition Zrotation Xrotation Yrotation
  JOINT spine
  {
    OFFSET 0 6.84637 0.3937
    CHANNELS 3 Zrotation Xrotation Yrotation
    JOINT spine1
    {
      OFFSET 0 9.49621 0
      CHANNELS 3 Zrotation Xrotation Yrotation
      JOINT spine2
      {
        OFFSET 0 9.09909 0
        CHANNELS 3 Zrotation Xrotation Yrotation
        JOINT Neck
        {
          OFFSET 0 23.3612 1.11378
          CHANNELS 3 Zrotation Xrotation Yrotation
          JOINT Head
          {
            OFFSET 0 7.05802 0
            CHANNELS 3 Zrotation Xrotation Yrotation
            End Site
            {
              OFFSET 0 17.0844 -5.63419
            }
          }
        }
        JOINT RightShoulder
        {
          OFFSET -3.83136 9.82631 -0.533491
          CHANNELS 3 Zrotation Xrotation Yrotation
          JOINT RightArm
          {
            OFFSET 0 12.8881 0
            CHANNELS 3 Zrotation Xrotation Yrotation
            JOINT RightArmRoll
            {
              OFFSET 0 6.50617 0
              CHANNELS 3 Zrotation Xrotation Yrotation
              JOINT RightForeArm
              {
                OFFSET 0 18.9501 0
                CHANNELS 3 Zrotation Xrotation Yrotation
                JOINT RightForeArmRoll
                {
                  OFFSET 0 7.30092 0
                  CHANNELS 3 Zrotation Xrotation Yrotation
                  JOINT RightHand
                  {
                    OFFSET 0 14.6514 0
                    CHANNELS 3 Zrotation Xrotation Yrotation
                    End Site
                    {
                      OFFSET 0 0 0
                    }
                  }
                }
              }
            }
          }
        }
        JOINT LeftShoulder
        {
          OFFSET 3.83136 9.82631 -0.533491
          CHANNELS 3 Zrotation Xrotation Yrotation
          JOINT LeftArm
          {
            OFFSET 0 12.8881 0
            CHANNELS 3 Zrotation Xrotation Yrotation
            JOINT LeftArmRoll
            {
              OFFSET 0 6.50617 0
              CHANNELS 3 Zrotation Xrotation Yrotation
              JOINT LeftForeArm
              {
                OFFSET 0 18.9501 0
                CHANNELS 3 Zrotation Xrotation Yrotation
                JOINT LeftForeArmRoll
                {
                  OFFSET 0 7.30093 0
                  CHANNELS 3 Zrotation Xrotation Yrotation
                  JOINT LeftHand
                  {
                    OFFSET 0 14.6514 0
                    CHANNELS 3 Zrotation Xrotation Yrotation
                    End Site
                    {
                      OFFSET 0 0 0
                    }
                  }
                }
              }
            }
          }
        }
      }
    }
  }
  JOINT RightUpLeg
  {
    OFFSET -6.06837 -1.11278 -0.933477
    CHANNELS 3 Zrotation Xrotation Yrotation
    JOINT RightUpLegRoll
    {
      OFFSET 0 17.1796 0
      CHANNELS 3 Zrotation Xrotation Yrotation
      JOINT RightLeg
      {
        OFFSET 0 -21.2743 0
        CHANNELS 3 Zrotation Xrotation Yrotation
        JOINT RightLegRoll
        {
          OFFSET 0 21.3439 0
          CHANNELS 3 Zrotation Xrotation Yrotation
          JOINT RightFoot
          {
            OFFSET 0 17.7652 0
            CHANNELS 3 Zrotation Xrotation Yrotation
            JOINT RightToeBase
            {
              OFFSET 0 14.8508 0
              CHANNELS 3 Zrotation Xrotation Yrotation
              End Site
              {
                OFFSET 0.0062947 7.19214 -0.829005
              }
            }
          }
        }
      }
    }
  }
  JOINT LeftUpLeg
  {
    OFFSET 6.06837 -1.11278 -0.933477
    CHANNELS 3 Zrotation Xrotation Yrotation
    JOINT LeftUpLegRoll
    {
      OFFSET 0 17.1797 0
      CHANNELS 3 Zrotation Xrotation Yrotation
      JOINT LeftLeg
      {
        OFFSET 0 21.2742 0
        CHANNELS 3 Zrotation Xrotation Yrotation
        JOINT LeftLegRoll
        {
          OFFSET 0 21.5412 0
          CHANNELS 3 Zrotation Xrotation Yrotation
          JOINT LeftFoot
          {
            OFFSET 0 17.5679 0
            CHANNELS 3 Zrotation Xrotation Yrotation
            JOINT LeftToeBase
            {
              OFFSET 0 14.8508 0
              CHANNELS 3 Zrotation Xrotation Yrotation
              End Site
              {
                OFFSET -0.0282102 7.19214 -0.829005
              }
            }
          }
        }
      }
    }
  }
}
MOTION
Frames: 12
Frame Time: 0.00208333
64.1391 86.9976 6.43232 1.43082 -0.201526 53.4065 3.20856 -0.586622 1.86492 6.4254 2.9077 3.33515 6.39065 4.54567 3.23061 -47.4709 -8.59337 5.04803 32.0402 14.6813 -1.91532 10.3829 3.28576 13.6565 -142.5 70.5731 -104.157 4.53374e-006 -9.33004e-006 -4.78096e-006 12.8369 14.5445 -3.56766 -3.93288e-006 -2.66444e-006 -3 8.02891 -4.95088 0.697235 -93.5611 -13.2956 7.19078 -66.7895 -1.85895 28.62 3.193e-006 -7.37842e-007 1.11332e-006 -11.5432 78.0317 9.16051 7.74226e-006 3.87573e-006 2.99998 -8.0308 -4.95144 -0.697634 172.507 6.20034 6.52504 -180 7.01578e-015 179.069 172.317 27.8768 -178.385 1.59745e-006 7.66181e-007 0.4548 -30.3503 76.6155 31.5679 8.55217 31.1434 -3.68526 173.612 14.6202 8.48926 4.54188e-006 -4.6773e-006 -1.49974 0.435153 -22.1405 0.732377 7.77421e-007 -2.57607e-006 -1.37288 26.5097 73.1231 -25.5184 -8.13649 25.2327 3.48774 
64.1428 87.0017 6.43085 1.43254 -0.20725 53.354 3.20507 -0.584833 1.86658 6.41849 2.91096 3.33851 6.3836 4.54894 3.2341 -47.4658 -8.54008 5.09374 32.0126 14.6767 -1.89051 10.4155 3.28917 13.6493 -142.727 70.5179 -103.964 4.53374e-006 -9.33004e-006 -4.78096e-006 12.9028 14.5543 -3.57304 -3.93288e-006 -2.66444e-006 -3 8.02891 -4.95088 0.697235 -93.5749 -13.2913 7.18935 -66.8055 -1.84344 28.6475 3.193e-006 -7.37842e-007 1.11332e-006 -11.4921 78.0414 9.11911 7.74226e-006 3.87573e-006 2.99998 -8.0308 -4.95144 -0.697634 172.521 6.1846 6.49591 -180 7.01578e-015 179.068 172.347 27.8464 -178.397 1.59745e-006 7.66181e-007 0.454444 -30.3336 76.6195 31.5698 8.55016 31.1206 -3.68226 173.615 14.6093 8.48533 4.54188e-006 -4.6773e-006 -1.49959 0.434959 -22.1358 0.732466 7.77421e-007 -2.57607e-006 -1.37304 26.5166 73.1274 -25.5239 -8.13649 25.2327 3.48774 
64.1418 87.0061 6.42986 1.43415 -0.213192 53.3012 3.20165 -0.583185 1.86832 6.41172 2.91411 3.34217 6.37671 4.5521 3.23788 -47.4593 -8.48671 5.13909 31.9856 14.6732 -1.86625 10.4499 3.2923 13.6411 -142.956 70.4627 -103.771 4.53374e-006 -9.33004e-006 -4.78096e-006 12.9695 14.5657 -3.57873 -3.93288e-006 -2.66444e-006 -3 8.02891 -4.95088 0.697235 -93.5881 -13.2871 7.18792 -66.8216 -1.82705 28.6765 3.193e-006 -7.37842e-007 1.11332e-006 -11.4392 78.0509 9.07587 7.74226e-006 3.87573e-006 2.99998 -8.0308 -4.95144 -0.697634 172.535 6.1686 6.46707 -180 7.01578e-015 179.066 172.378 27.8138 -178.408 1.59745e-006 7.66181e-007 0.454163 -30.321 76.6241 31.5739 8.54777 31.0938 -3.67807 173.619 14.5987 8.48072 4.54188e-006 -4.6773e-006 -1.49944 0.434509 -22.1314 0.732482 7.77421e-007 -2.57607e-006 -1.37319 26.5237 73.1317 -25.5298 -8.13649 25.2327 3.48774 
64.1399 87.007 6.42841 1.43559 -0.219369 53.2481 3.19831 -0.581689 1.87015 6.40508 2.91715 3.34617 6.36999 4.55515 3.24199 -47.4513 -8.43337 5.18395 31.9592 14.6711 -1.84266 10.4864 3.29516 13.6318 -143.187 70.4076 -103.578 4.53374e-006 -9.33004e-006 -4.78096e-006 13.037 14.5789 -3.58472 -3.93288e-006 -2.66444e-006 -3 8.02891 -4.95088 0.697235 -93.6006 -13.2829 7.18649 -66.8376 -1.80975 28.7071 3.193e-006 -7.37842e-007 1.11332e-006 -11.3843 78.0601 9.03063 7.74226e-006 3.87573e-006 2.99998 -8.0308 -4.95144 -0.697634 172.55 6.15234 6.43859 -180 7.01578e-015 179.065 172.407 27.7785 -178.42 1.59745e-006 7.66181e-007 0.453969 -30.3131 76.6293 31.5806 8.54495 31.0623 -3.67255 173.623 14.5885 8.47536 4.54188e-006 -4.6773e-006 -1.49929 0.433789 -22.1274 0.732424 7.77421e-007 -2.57607e-006 -1.37335 26.5312 73.1362 -25.5358 -8.13649 25.2327 3.48774 
64.143 87.0121 6.42759 1.4374 -0.225934 53.1945 3.19503 -0.580305 1.87212 6.39854 2.92017 3.35065 6.36343 4.55818 3.24659 -47.4417 -8.37926 5.22868 31.9333 14.6703 -1.81981 10.5253 3.2977 13.6211 -143.421 70.3525 -103.383 4.53374e-006 -9.33004e-006 -4.78096e-006 13.1056 14.5945 -3.59118 -3.93288e-006 -2.66444e-006 -3 8.02891 -4.95088 0.697235 -93.6123 -13.2787 7.18508 -66.8539 -1.79141 28.7394 3.193e-006 -7.37842e-007 1.11332e-006 -11.3272 78.0691 8.98313 7.74226e-006 3.87573e-006 2.99998 -8.0308 -4.95144 -0.697634 172.565 6.13492 6.41012 -180 7.01577e-015 179.064 172.436 27.7401 -178.431 1.59745e-006 7.66181e-007 0.453861 -30.3103 76.6355 31.5906 8.54163 31.0252 -3.66551 173.627 14.5778 8.4694 4.54188e-006 -4.6773e-006 -1.49914 0.432881 -22.1237 0.732317 7.77421e-007 -2.57607e-006 -1.3735 26.5391 73.1408 -25.5422 -8.13649 25.2327 3.48774 
64.1419 87.0046 6.42711 1.44004 -0.232977 53.14 3.1918 -0.578997 1.87427 6.39211 2.92322 3.35567 6.35701 4.56124 3.25172 -47.4306 -8.32367 5.27362 31.9071 14.6708 -1.7976 10.5671 3.29992 13.6089 -143.658 70.2968 -103.187 4.53374e-006 -9.33004e-006 -4.78096e-006 13.1753 14.6134 -3.59826 -3.93288e-006 -2.66444e-006 -3 8.02891 -4.95088 0.697235 -93.6232 -13.2745 7.18367 -66.8709 -1.77192 28.773 3.193e-006 -7.37842e-007 1.11332e-006 -11.2679 78.0777 8.93341 7.74226e-006 3.87573e-006 2.99998 -8.0308 -4.95144 -0.697634 172.58 6.11571 6.38132 -180 7.01577e-015 179.062 172.466 27.6983 -178.443 1.59745e-006 7.66181e-007 0.453826 -30.3123 76.6431 31.6043 8.53781 30.9826 -3.65698 173.631 14.5661 8.46306 4.54188e-006 -4.6773e-006 -1.49899 0.431861 -22.1202 0.732186 7.77421e-007 -2.57607e-006 -1.37365 26.5477 73.1459 -25.549 -8.13649 25.2327 3.48774 
64.1469 87.0107 6.42628 1.44333 -0.240428 53.0848 3.18863 -0.577771 1.87657 6.3858 2.92627 3.36115 6.35073 4.5643 3.2573 -47.4181 -8.26685 5.31872 31.8807 14.6725 -1.77593 10.6114 3.30183 13.5953 -143.896 70.2407 -102.99 4.53374e-006 -9.33004e-006 -4.78096e-006 13.2461 14.6351 -3.60589 -3.93288e-006 -2.66444e-006 -3 8.02891 -4.95088 0.697235 -93.6334 -13.2704 7.18229 -66.8887 -1.75137 28.8077 3.193e-006 -7.37842e-007 1.11332e-006 -11.2064 78.086 8.88168 7.74226e-006 3.87573e-006 2.99998 -8.0308 -4.95144 -0.697634 172.596 6.09506 6.35227 -180 7.01577e-015 179.061 172.496 27.6539 -178.454 1.59745e-006 7.66181e-007 0.453857 -30.3184 76.6518 31.6211 8.53356 30.9353 -3.64714 173.636 14.5535 8.45631 4.54188e-006 -4.6773e-006 -1.49885 0.430707 -22.1169 0.73202 7.77421e-007 -2.57607e-006 -1.37381 26.5567 73.1512 -25.5562 -8.13649 25.2327 3.48774 
64.1472 87.0148 6.42266 1.44709 -0.248215 53.029 3.18552 -0.576639 1.87898 6.37961 2.92928 3.36699 6.34461 4.56731 3.26324 -47.4041 -8.20907 5.36395 31.8542 14.675 -1.75467 10.658 3.30345 13.5804 -144.138 70.1842 -102.792 4.53374e-006 -9.33004e-006 -4.78096e-006 13.3178 14.6595 -3.61402 -3.93288e-006 -2.66444e-006 -3 8.02891 -4.95088 0.697235 -93.6428 -13.2662 7.18093 -66.9071 -1.72983 28.8434 3.193e-006 -7.37842e-007 1.11332e-006 -11.1432 78.094 8.82813 7.74226e-006 3.87573e-006 2.99998 -8.0308 -4.95144 -0.697634 172.612 6.07334 6.32306 -180 7.01576e-015 179.059 172.527 27.6072 -178.466 1.59745e-006 7.66181e-007 0.453946 -30.328 76.6613 31.6406 8.52897 30.8838 -3.63618 173.64 14.5404 8.44916 4.54188e-006 -4.6773e-006 -1.4987 0.429395 -22.1138 0.73181 7.77421e-007 -2.57607e-006 -1.37397 26.5663 73.1567 -25.5637 -8.13649 25.2327 3.48774 
64.1471 87.0136 6.42291 1.45113 -0.256266 52.9726 3.18249 -0.575607 1.88148 6.37356 2.9322 3.3731 6.33865 4.57024 3.26946 -47.3888 -8.15057 5.40923 31.8275 14.6783 -1.73372 10.7065 3.30479 13.5645 -144.381 70.1274 -102.593 4.53374e-006 -9.33004e-006 -4.78096e-006 13.3905 14.6863 -3.62259 -3.93288e-006 -2.66444e-006 -3 8.02891 -4.95088 0.697235 -93.6516 -13.2622 7.17959 -66.9262 -1.70737 28.8799 3.193e-006 -7.37842e-007 1.11332e-006 -11.0783 78.1017 8.77299 7.74226e-006 3.87573e-006 2.99998 -8.0308 -4.95144 -0.697634 172.628 6.05093 6.29375 -180 7.01576e-015 179.057 172.558 27.5588 -178.478 1.59745e-006 7.66181e-007 0.454087 -30.3405 76.6715 31.6621 8.5241 30.8291 -3.62428 173.645 14.5269 8.44158 4.54188e-006 -4.6773e-006 -1.49855 0.427903 -22.111 0.731548 7.77421e-007 -2.57607e-006 -1.37413 26.5762 73.1624 -25.5714 -8.13649 25.2327 3.48774 
64.1383 87.0113 6.42213 1.45526 -0.264511 52.9158 3.17954 -0.574685 1.88402 6.36766 2.935 3.3794 6.33286 4.57305 3.27585 -47.3724 -8.0916 5.45452 31.8005 14.6821 -1.71297 10.7568 3.30587 13.5475 -144.626 70.0702 -102.393 4.53374e-006 -9.33004e-006 -4.78096e-006 13.4639 14.7151 -3.63155 -3.93288e-006 -2.66444e-006 -3 8.02891 -4.95088 0.697235 -93.6597 -13.2582 7.17828 -66.9458 -1.68408 28.9172 3.193e-006 -7.37842e-007 1.11332e-006 -11.0121 78.1092 8.71646 7.74226e-006 3.87573e-006 2.99998 -8.0308 -4.95144 -0.697634 172.644 6.02818 6.26444 -180 7.01576e-015 179.056 172.589 27.5091 -178.49 1.59745e-006 7.66181e-007 0.454272 -30.3554 76.6822 31.6851 8.51903 30.772 -3.61163 173.65 14.5134 8.43357 4.54188e-006 -4.6773e-006 -1.49841 0.426206 -22.1084 0.731224 7.77421e-007 -2.57607e-006 -1.37429 26.5864 73.1683 -25.5794 -8.13649 25.2327 3.48774 
64.1376 87.0132 6.42105 1.45931 -0.272875 52.8585 3.17666 -0.573882 1.88659 6.36191 2.93764 3.3858 6.32724 4.5757 3.28233 -47.3547 -8.03243 5.49977 31.7734 14.6864 -1.6923 10.8085 3.3067 13.5297 -144.873 70.0127 -102.193 4.53374e-006 -9.33004e-006 -4.78096e-006 13.5381 14.7457 -3.64083 -3.93288e-006 -2.66444e-006 -3 8.02891 -4.95088 0.697235 -93.6671 -13.2542 7.17699 -66.966 -1.66002 28.9549 3.193e-006 -7.37842e-007 1.11332e-006 -10.9447 78.1164 8.65875 7.74226e-006 3.87573e-006 2.99998 -8.0308 -4.95144 -0.697634 172.66 6.00546 6.2352 -180 7.01575e-015 179.054 172.619 27.4588 -178.502 1.59745e-006 7.66181e-007 0.454494 -30.3719 76.6932 31.7091 8.51383 30.713 -3.59841 173.655 14.5 8.42513 4.54188e-006 -4.6773e-006 -1.49827 0.424283 -22.1061 0.730829 7.77421e-007 -2.57607e-006 -1.37445 26.597 73.1743 -25.5874 -8.13649 25.2327 3.48774 
64.1438 87.0125 6.41792 1.4631 -0.281287 52.801 3.17388 -0.573206 1.88914 6.35634 2.94008 3.39219 6.3218 4.57814 3.28882 -47.3361 -7.97329 5.54493 31.7461 14.6909 -1.6716 10.8614 3.30731 13.5111 -145.122 69.9551 -101.991 4.53374e-006 -9.33004e-006 -4.78096e-006 13.6129 14.7778 -3.65037 -3.93288e-006 -2.66444e-006 -3 8.02891 -4.95088 0.697235 -93.674 -13.2503 7.17574 -66.9866 -1.63529 28.993 3.193e-006 -7.37842e-007 1.11332e-006 -10.8763 78.1233 8.60008 7.74226e-006 3.87573e-006 2.99998 -8.0308 -4.95144 -0.697634 172.677 5.98314 6.20611 -180 7.01575e-015 179.052 172.649 27.4083 -178.514 1.59745e-006 7.66181e-007 0.454745 -30.3896 76.7041 31.7336 8.50858 30.6531 -3.58482 173.66 14.4871 8.41623 4.54188e-006 -4.6773e-006 -1.49812 0.42211 -22.1041 0.730355 7.77421e-007 -2.57607e-006 -1.37462 26.6077 73.1803 -25.5956 -8.13649 25.2327 3.48774 
